<?xml version="1.0" encoding="UTF-8" standalone="no"?>
<svg
   width="44"
   height="44"
   viewBox="0 0 44 44"
   fill="none"
   version="1.1"
   id="svg1"
   sodipodi:docname="check-circle-filled.svg"
   inkscape:version="1.3 (0e150ed6c4, 2023-07-21)"
   xmlns:inkscape="http://www.inkscape.org/namespaces/inkscape"
   xmlns:sodipodi="http://sodipodi.sourceforge.net/DTD/sodipodi-0.dtd"
   xmlns="http://www.w3.org/2000/svg"
   xmlns:svg="http://www.w3.org/2000/svg">
  <sodipodi:namedview
     id="namedview1"
     pagecolor="#ffffff"
     bordercolor="#666666"
     borderopacity="1.0"
     inkscape:showpageshadow="2"
     inkscape:pageopacity="0.0"
     inkscape:pagecheckerboard="0"
     inkscape:deskcolor="#d1d1d1"
     inkscape:zoom="18.113636"
     inkscape:cx="22"
     inkscape:cy="22"
     inkscape:window-width="1920"
     inkscape:window-height="1017"
     inkscape:window-x="-8"
     inkscape:window-y="-8"
     inkscape:window-maximized="1"
     inkscape:current-layer="svg1" />
  <path
     id="circle1"
     style="fill:#263c3c"
     d="M 22 0 A 22 22 0 0 0 0 22 A 22 22 0 0 0 22 44 A 22 22 0 0 0 44 22 A 22 22 0 0 0 22 0 z M 32.800781 13.1875 C 33.107881 13.1875 33.414088 13.304713 33.648438 13.539062 C 34.117037 14.007662 34.117037 14.767629 33.648438 15.236328 L 18.423828 30.460938 C 17.955529 30.929237 17.195062 30.929537 16.726562 30.460938 L 10.351562 24.085938 C 9.882903 23.617338 9.882903 22.859225 10.351562 22.390625 C 10.820262 21.922025 11.580129 21.921925 12.048828 22.390625 L 17.574219 27.916016 L 31.951172 13.539062 C 32.185522 13.304713 32.493682 13.1875 32.800781 13.1875 z " />
  <defs
     id="defs1">
    <clipPath
       clipPathUnits="userSpaceOnUse"
       id="clipPath2">
      <g
         id="g3">
        <rect
           width="24"
           height="24"
           fill="#ffffff"
           id="rect2"
           x="10"
           y="10" />
      </g>
    </clipPath>
  </defs>
</svg>
