<?xml version="1.0" encoding="UTF-8" standalone="no"?>
<svg
   width="44"
   height="44"
   viewBox="0 0 44 44"
   fill="none"
   version="1.1"
   id="svg1"
   sodipodi:docname="close.svg"
   inkscape:version="1.3 (0e150ed6c4, 2023-07-21)"
   xmlns:inkscape="http://www.inkscape.org/namespaces/inkscape"
   xmlns:sodipodi="http://sodipodi.sourceforge.net/DTD/sodipodi-0.dtd"
   xmlns="http://www.w3.org/2000/svg"
   xmlns:svg="http://www.w3.org/2000/svg">
  <defs
     id="defs1" />
  <sodipodi:namedview
     id="namedview1"
     pagecolor="#ffffff"
     bordercolor="#666666"
     borderopacity="1.0"
     inkscape:showpageshadow="2"
     inkscape:pageopacity="0.0"
     inkscape:pagecheckerboard="0"
     inkscape:deskcolor="#d1d1d1"
     inkscape:zoom="6.6011794"
     inkscape:cx="19.31473"
     inkscape:cy="8.8620527"
     inkscape:window-width="1920"
     inkscape:window-height="1017"
     inkscape:window-x="-8"
     inkscape:window-y="-8"
     inkscape:window-maximized="1"
     inkscape:current-layer="svg1" />
  <path
     style="color:#000000;fill:#8f312c;stroke-linecap:round;stroke-linejoin:round;-inkscape-stroke:none"
     d="m 16.292969,16.292969 a 1,1 0 0 0 0,1.414062 L 20.585937,22 16.292969,26.292969 a 1,1 0 0 0 0,1.414062 1,1 0 0 0 1.414062,0 L 22,23.414062 l 4.292969,4.292969 a 1,1 0 0 0 1.414062,0 1,1 0 0 0 0,-1.414062 L 23.414062,22 27.707031,17.707031 a 1,1 0 0 0 0,-1.414062 1,1 0 0 0 -1.414062,0 L 22,20.585937 17.707031,16.292969 a 1,1 0 0 0 -1.414062,0 z"
     id="path1" />
</svg>
