<svg width="17" height="16" viewBox="0 0 17 16" fill="none" xmlns="http://www.w3.org/2000/svg">
<g clip-path="url(#clip0_67_137)">
<path d="M2.22894 13.0107V13.8549C2.22894 15.0397 4.76235 16.0003 7.88602 16.0003C8.65744 16.0003 9.38795 15.9421 10.0571 15.8373C12.1084 15.5112 13.546 14.7486 13.546 13.8549V13.0078C12.497 14.0034 10.1828 14.5157 7.88602 14.5157C5.59222 14.5157 3.27796 14.0034 2.22894 13.0107Z" fill="white"/>
<path d="M4.2004 10.5388C4.05137 10.498 3.90527 10.4544 3.76501 10.4078V11.0424C3.76501 12.2272 6.29842 13.1878 9.42209 13.1878C10.1935 13.1878 10.924 13.1296 11.5932 13.0248C13.6444 12.6987 15.0821 11.9361 15.0821 11.0424V10.1953C14.0331 11.1909 11.7188 11.7032 9.42209 11.7032C7.40589 11.7032 5.37506 11.3073 4.2004 10.5388Z" fill="white"/>
<path d="M9.93433 10.7924C9.2126 10.9059 8.44995 10.9642 7.66975 10.9642C7.53242 10.9642 7.39215 10.9613 7.25482 10.9583C7.92106 11.0631 8.65447 11.1214 9.42297 11.1214C12.5466 11.1214 15.0801 10.1607 15.0801 8.97597C15.0801 8.48402 14.6447 8.0299 13.9142 7.66895V8.23657C13.9142 9.44172 12.4268 10.3965 9.93433 10.7924Z" fill="white"/>
<path d="M7.67038 10.3802C8.4418 10.3802 9.17232 10.322 9.84148 10.2172C11.8927 9.89113 13.3304 9.12845 13.3304 8.2348V7.3877C12.2814 8.38324 9.96712 8.89558 7.67038 8.89558C5.37658 8.89558 3.06233 8.38324 2.01331 7.39061V8.2348C2.01331 9.41955 4.54671 10.3802 7.67038 10.3802Z" fill="white"/>
<path d="M7.66934 8.31185C10.5183 8.31185 12.8764 7.51424 13.2709 6.47502C12.8618 6.59438 12.4118 6.69334 11.9209 6.77195C11.1992 6.88548 10.4365 6.94079 9.65633 6.94079C6.86285 6.94079 4.03432 6.1781 3.5025 4.7168C2.57915 5.09813 2.01227 5.60464 2.01227 6.16646C2.01227 7.35123 4.54568 8.31185 7.66934 8.31185Z" fill="white"/>
<path d="M9.65738 4.87507C7.36358 4.87507 5.04933 4.36274 4.00031 3.3701V4.21429C4.00031 5.39904 6.53371 6.35968 9.65738 6.35968C10.4288 6.35968 11.1593 6.30146 11.8285 6.19667C13.8797 5.87062 15.3174 5.10795 15.3174 4.21429V3.36719C14.2684 4.36274 11.9541 4.87507 9.65738 4.87507Z" fill="white"/>
<path d="M9.65742 4.29199C12.7823 4.29199 15.3155 3.3312 15.3155 2.146C15.3155 0.960796 12.7823 0 9.65742 0C6.53254 0 3.99933 0.960796 3.99933 2.146C3.99933 3.3312 6.53254 4.29199 9.65742 4.29199Z" fill="white"/>
<path d="M2.23773 11.7883C2.23773 12.9731 4.77114 13.9337 7.89481 13.9337C8.7159 13.9337 9.49901 13.8667 10.2032 13.7474C9.94609 13.7648 9.68602 13.7707 9.42303 13.7707C6.32274 13.7707 3.18155 12.8333 3.18155 11.0431V10.6035C2.58546 10.9412 2.23773 11.3516 2.23773 11.7883Z" fill="white"/>
</g>
<defs>
<clipPath id="clip0_67_137">
<rect width="16.0608" height="16" fill="white" transform="translate(0.63501)"/>
</clipPath>
</defs>
</svg>
