<svg width="17" height="16" viewBox="0 0 17 16" fill="none" xmlns="http://www.w3.org/2000/svg">
<path d="M5.00439 8C5.00439 7.86739 5.0571 7.74021 5.15093 7.64645C5.24477 7.55268 5.37203 7.5 5.50473 7.5H10.0079V4.25C10.0079 3.25 8.95119 2.5 8.00647 2.5H3.25317C2.78887 2.5005 2.34373 2.68503 2.01542 3.01311C1.68711 3.34119 1.50245 3.78602 1.50195 4.25V11.75C1.50245 12.214 1.68711 12.6588 2.01542 12.9869C2.34373 13.315 2.78887 13.4995 3.25317 13.5H8.25664C8.72094 13.4995 9.16608 13.315 9.49439 12.9869C9.8227 12.6588 10.0074 12.214 10.0079 11.75V8.5H5.50473C5.37203 8.5 5.24477 8.44732 5.15093 8.35355C5.0571 8.25979 5.00439 8.13261 5.00439 8ZM14.3643 7.64656L11.8626 5.14656C11.768 5.05675 11.642 5.00742 11.5116 5.00909C11.3811 5.01076 11.2564 5.0633 11.1642 5.1555C11.0719 5.2477 11.0193 5.37227 11.0177 5.50265C11.016 5.63303 11.0653 5.75891 11.1552 5.85344L12.8026 7.5H10.0079V8.5H12.8026L11.1552 10.1466C11.1068 10.1925 11.0681 10.2477 11.0413 10.3089C11.0146 10.37 11.0004 10.4359 10.9995 10.5027C10.9987 10.5694 11.0112 10.6356 11.0364 10.6974C11.0615 10.7593 11.0988 10.8154 11.146 10.8626C11.1933 10.9098 11.2495 10.9471 11.3113 10.9722C11.3732 10.9974 11.4395 11.0099 11.5062 11.009C11.573 11.0082 11.639 10.994 11.7002 10.9672C11.7614 10.9405 11.8166 10.9018 11.8626 10.8534L14.3643 8.35344C14.4581 8.25968 14.5108 8.13255 14.5108 8C14.5108 7.86745 14.4581 7.74032 14.3643 7.64656Z" fill="white"/>
</svg>
