<?xml version="1.0" encoding="UTF-8" standalone="no"?>
<svg
   width="24"
   height="24"
   viewBox="0 0 24 24"
   fill="none"
   version="1.1"
   id="svg1"
   sodipodi:docname="pause.svg"
   inkscape:version="1.3 (0e150ed6c4, 2023-07-21)"
   xmlns:inkscape="http://www.inkscape.org/namespaces/inkscape"
   xmlns:sodipodi="http://sodipodi.sourceforge.net/DTD/sodipodi-0.dtd"
   xmlns="http://www.w3.org/2000/svg"
   xmlns:svg="http://www.w3.org/2000/svg">
  <defs
     id="defs1" />
  <sodipodi:namedview
     id="namedview1"
     pagecolor="#ffffff"
     bordercolor="#666666"
     borderopacity="1.0"
     inkscape:showpageshadow="2"
     inkscape:pageopacity="0.0"
     inkscape:pagecheckerboard="0"
     inkscape:deskcolor="#d1d1d1"
     inkscape:zoom="33.999439"
     inkscape:cx="12.985508"
     inkscape:cy="12.279614"
     inkscape:window-width="1920"
     inkscape:window-height="1017"
     inkscape:window-x="-8"
     inkscape:window-y="-8"
     inkscape:window-maximized="1"
     inkscape:current-layer="svg1" />
  <path
     id="path1"
     style="fill:#263c3c"
     d="M 12 0 A 12 12 0 0 0 0 12 A 12 12 0 0 0 12 24 A 12 12 0 0 0 24 12 A 12 12 0 0 0 12 0 z M 9.3339844 7.3339844 C 9.37982 7.3339844 9.4240703 7.3372233 9.46875 7.3417969 C 9.5134297 7.3463704 9.5582665 7.3524089 9.6015625 7.3613281 C 9.6448585 7.3702474 9.6868312 7.3814941 9.7285156 7.3945312 C 9.7702 7.4075684 9.8117175 7.422526 9.8515625 7.4394531 C 9.8914075 7.4563802 9.9290191 7.4755045 9.9667969 7.4960938 C 10.004575 7.516683 10.042642 7.5384765 10.078125 7.5625 C 10.113608 7.5865235 10.146728 7.611442 10.179688 7.6386719 C 10.212647 7.6659017 10.245182 7.6963541 10.275391 7.7265625 C 10.3056 7.7567709 10.334098 7.7873534 10.361328 7.8203125 C 10.388558 7.8532716 10.413476 7.8883462 10.4375 7.9238281 C 10.461524 7.95931 10.48527 7.9954263 10.505859 8.0332031 C 10.526449 8.07098 10.54362 8.1105467 10.560547 8.1503906 C 10.577474 8.1902346 10.594385 8.2298012 10.607422 8.2714844 C 10.620459 8.3131676 10.629753 8.3570961 10.638672 8.4003906 C 10.647591 8.4436852 10.655583 8.4865719 10.660156 8.53125 C 10.66473 8.5759281 10.666016 8.622135 10.666016 8.6679688 L 10.666016 15.333984 C 10.666016 15.379816 10.66473 15.426027 10.660156 15.470703 C 10.655583 15.515379 10.647591 15.55827 10.638672 15.601562 C 10.629753 15.644855 10.620459 15.686834 10.607422 15.728516 C 10.594385 15.770197 10.577474 15.81172 10.560547 15.851562 C 10.54362 15.891405 10.526449 15.930974 10.505859 15.96875 C 10.48527 16.006526 10.461524 16.042644 10.4375 16.078125 C 10.413476 16.113606 10.388558 16.148682 10.361328 16.181641 C 10.334098 16.214599 10.3056 16.245183 10.275391 16.275391 C 10.245182 16.305598 10.212647 16.334099 10.179688 16.361328 C 10.146728 16.388558 10.113608 16.41543 10.078125 16.439453 C 10.042642 16.463476 10.004575 16.48527 9.9667969 16.505859 C 9.9290191 16.526448 9.8914075 16.545573 9.8515625 16.5625 C 9.8117175 16.579427 9.7702 16.594385 9.7285156 16.607422 C 9.6868312 16.620459 9.6448585 16.631706 9.6015625 16.640625 C 9.5582665 16.649544 9.5134297 16.655583 9.46875 16.660156 C 9.4240703 16.66473 9.37982 16.667969 9.3339844 16.667969 C 9.2881513 16.667969 9.2419431 16.66473 9.1972656 16.660156 C 9.1525881 16.655583 9.1097003 16.649544 9.0664062 16.640625 C 9.0231122 16.631706 8.9791828 16.620459 8.9375 16.607422 C 8.8958172 16.594385 8.8562498 16.579427 8.8164062 16.5625 C 8.7765627 16.545573 8.7369953 16.526448 8.6992188 16.505859 C 8.6614422 16.48527 8.6253254 16.463476 8.5898438 16.439453 C 8.5543621 16.41543 8.519287 16.388558 8.4863281 16.361328 C 8.4533692 16.334099 8.4227864 16.305598 8.3925781 16.275391 C 8.3623699 16.245183 8.3319173 16.214599 8.3046875 16.181641 C 8.2774577 16.148682 8.252539 16.113606 8.2285156 16.078125 C 8.2044922 16.042644 8.1826985 16.006526 8.1621094 15.96875 C 8.1415202 15.930974 8.1223958 15.891405 8.1054688 15.851562 C 8.0885417 15.81172 8.073584 15.770197 8.0605469 15.728516 C 8.0475098 15.686834 8.036263 15.644855 8.0273438 15.601562 C 8.0184245 15.55827 8.0123861 15.515379 8.0078125 15.470703 C 8.0032389 15.426027 8 15.379816 8 15.333984 L 8 8.6679688 C 8 8.622135 8.0032389 8.5759281 8.0078125 8.53125 C 8.0123861 8.4865719 8.0184245 8.4436852 8.0273438 8.4003906 C 8.036263 8.3570961 8.0475098 8.3131676 8.0605469 8.2714844 C 8.073584 8.2298012 8.0885417 8.1902346 8.1054688 8.1503906 C 8.1223958 8.1105467 8.1415202 8.07098 8.1621094 8.0332031 C 8.1826985 7.9954263 8.2044922 7.95931 8.2285156 7.9238281 C 8.252539 7.8883462 8.2774577 7.8532716 8.3046875 7.8203125 C 8.3319173 7.7873534 8.3623699 7.7567709 8.3925781 7.7265625 C 8.4227864 7.6963541 8.4533692 7.6659017 8.4863281 7.6386719 C 8.519287 7.611442 8.5543621 7.5865235 8.5898438 7.5625 C 8.6253254 7.5384765 8.6614422 7.516683 8.6992188 7.4960938 C 8.7369953 7.4755045 8.7765627 7.4563802 8.8164062 7.4394531 C 8.8562498 7.422526 8.8958172 7.4075684 8.9375 7.3945312 C 8.9791828 7.3814941 9.0231122 7.3702474 9.0664062 7.3613281 C 9.1097003 7.3524089 9.1525881 7.3463704 9.1972656 7.3417969 C 9.2419431 7.3372233 9.2881513 7.3339844 9.3339844 7.3339844 z M 14.666016 7.3339844 C 14.711847 7.3339844 14.758059 7.3372233 14.802734 7.3417969 C 14.84741 7.3463704 14.890301 7.3524089 14.933594 7.3613281 C 14.976886 7.3702474 15.020818 7.3814941 15.0625 7.3945312 C 15.104182 7.4075684 15.143751 7.422526 15.183594 7.4394531 C 15.223436 7.4563802 15.263006 7.4755045 15.300781 7.4960938 C 15.338557 7.516683 15.374675 7.5384765 15.410156 7.5625 C 15.445637 7.5865235 15.480714 7.611442 15.513672 7.6386719 C 15.54663 7.6659017 15.577214 7.6963541 15.607422 7.7265625 C 15.63763 7.7567709 15.668083 7.7873534 15.695312 7.8203125 C 15.722542 7.8532716 15.747461 7.8883462 15.771484 7.9238281 C 15.795507 7.95931 15.817302 7.9954263 15.837891 8.0332031 C 15.85848 8.07098 15.877604 8.1105467 15.894531 8.1503906 C 15.911458 8.1902346 15.926416 8.2298012 15.939453 8.2714844 C 15.95249 8.3131676 15.963737 8.3570961 15.972656 8.4003906 C 15.981575 8.4436852 15.987614 8.4865719 15.992188 8.53125 C 15.996761 8.5759281 16 8.622135 16 8.6679688 L 16 15.333984 C 16 15.379816 15.996761 15.426027 15.992188 15.470703 C 15.987614 15.515379 15.981575 15.55827 15.972656 15.601562 C 15.963737 15.644855 15.95249 15.686834 15.939453 15.728516 C 15.926416 15.770197 15.911458 15.81172 15.894531 15.851562 C 15.877604 15.891405 15.85848 15.930974 15.837891 15.96875 C 15.817302 16.006526 15.795507 16.042644 15.771484 16.078125 C 15.747461 16.113606 15.722542 16.148682 15.695312 16.181641 C 15.668083 16.214599 15.63763 16.245183 15.607422 16.275391 C 15.577214 16.305598 15.54663 16.334099 15.513672 16.361328 C 15.480714 16.388558 15.445637 16.41543 15.410156 16.439453 C 15.374675 16.463476 15.338557 16.48527 15.300781 16.505859 C 15.263006 16.526448 15.223436 16.545573 15.183594 16.5625 C 15.143751 16.579427 15.104182 16.594385 15.0625 16.607422 C 15.020818 16.620459 14.976886 16.631706 14.933594 16.640625 C 14.890301 16.649544 14.84741 16.655583 14.802734 16.660156 C 14.758059 16.66473 14.711847 16.667969 14.666016 16.667969 C 14.620178 16.667969 14.575931 16.66473 14.53125 16.660156 C 14.486569 16.655583 14.441735 16.649544 14.398438 16.640625 C 14.35514 16.631706 14.31317 16.620459 14.271484 16.607422 C 14.229799 16.594385 14.188284 16.579427 14.148438 16.5625 C 14.108591 16.545573 14.070982 16.526448 14.033203 16.505859 C 13.995425 16.48527 13.957358 16.463476 13.921875 16.439453 C 13.886392 16.41543 13.853273 16.388558 13.820312 16.361328 C 13.787352 16.334099 13.754819 16.305598 13.724609 16.275391 C 13.6944 16.245183 13.665902 16.214599 13.638672 16.181641 C 13.611441 16.148682 13.586524 16.113606 13.5625 16.078125 C 13.538476 16.042644 13.51473 16.006526 13.494141 15.96875 C 13.473551 15.930974 13.45638 15.891405 13.439453 15.851562 C 13.422526 15.81172 13.405615 15.770197 13.392578 15.728516 C 13.379541 15.686834 13.370247 15.644855 13.361328 15.601562 C 13.352409 15.55827 13.344417 15.515379 13.339844 15.470703 C 13.33527 15.426027 13.333984 15.379816 13.333984 15.333984 L 13.333984 8.6679688 C 13.333984 8.622135 13.33527 8.5759281 13.339844 8.53125 C 13.344417 8.4865719 13.352409 8.4436852 13.361328 8.4003906 C 13.370247 8.3570961 13.379541 8.3131676 13.392578 8.2714844 C 13.405615 8.2298012 13.422526 8.1902346 13.439453 8.1503906 C 13.45638 8.1105467 13.473551 8.07098 13.494141 8.0332031 C 13.51473 7.9954263 13.538476 7.95931 13.5625 7.9238281 C 13.586524 7.8883462 13.611441 7.8532716 13.638672 7.8203125 C 13.665902 7.7873534 13.6944 7.7567709 13.724609 7.7265625 C 13.754819 7.6963541 13.787352 7.6659017 13.820312 7.6386719 C 13.853273 7.611442 13.886392 7.5865235 13.921875 7.5625 C 13.957358 7.5384765 13.995425 7.516683 14.033203 7.4960938 C 14.070982 7.4755045 14.108591 7.4563802 14.148438 7.4394531 C 14.188284 7.422526 14.229799 7.4075684 14.271484 7.3945312 C 14.31317 7.3814941 14.35514 7.3702474 14.398438 7.3613281 C 14.441735 7.3524089 14.486569 7.3463704 14.53125 7.3417969 C 14.575931 7.3372233 14.620178 7.3339844 14.666016 7.3339844 z " />
</svg>
