<svg width="13" height="12" viewBox="0 0 13 12" fill="none" xmlns="http://www.w3.org/2000/svg">
<path d="M8.89894 1.34998C9.05509 1.18946 9.24173 1.06148 9.448 0.973513C9.65427 0.885543 9.87604 0.839334 10.1004 0.837577C10.3248 0.835819 10.5473 0.878548 10.7549 0.963275C10.9625 1.048 11.1512 1.17303 11.3098 1.33109C11.4685 1.48915 11.594 1.67707 11.679 1.88392C11.7641 2.09076 11.807 2.3124 11.8052 2.53592C11.8034 2.75944 11.7571 2.98037 11.6688 3.18586C11.5805 3.39135 11.452 3.57728 11.2909 3.73284L10.6284 4.39284L8.23643 2.00998L8.89894 1.34998ZM7.78042 2.46426L2.53756 7.68726C2.34827 7.87584 2.21061 8.10984 2.13833 8.36698L1.47281 10.7348C1.45744 10.7897 1.45698 10.8477 1.4715 10.9028C1.48602 10.9579 1.51499 11.0082 1.55544 11.0485C1.59589 11.0888 1.64636 11.1177 1.70169 11.1321C1.75702 11.1466 1.81522 11.1462 1.87032 11.1308L4.24675 10.4678C4.50504 10.3964 4.74029 10.2593 4.92948 10.0701L10.1728 4.84755L7.78042 2.46426Z" fill="#8B8B8B"/>
</svg>
