<svg width="17" height="16" viewBox="0 0 17 16" fill="none" xmlns="http://www.w3.org/2000/svg">
<path d="M7.17815 2C6.37946 2 5.59257 2.19261 4.88429 2.56147C4.17602 2.93033 3.56728 3.46455 3.10976 4.11876C2.65225 4.77297 2.35948 5.52784 2.25631 6.31929C2.15314 7.11073 2.24261 7.91537 2.51714 8.66487C2.79167 9.41438 3.24314 10.0866 3.83322 10.6245C4.42329 11.1624 5.13455 11.55 5.90658 11.7545C6.67861 11.9589 7.48862 11.9742 8.26782 11.799C9.04702 11.6238 9.77241 11.2632 10.3824 10.748C10.3677 10.9287 10.4291 11.1147 10.5678 11.2527L13.1296 13.8127C13.2498 13.9327 13.4127 14.0002 13.5826 14.0002C13.7525 14.0002 13.9154 13.9327 14.0356 13.8127C14.1557 13.6926 14.2232 13.5298 14.2232 13.36C14.2232 13.1902 14.1557 13.0274 14.0356 12.9073L11.4738 10.3473C11.4081 10.2817 11.3289 10.2311 11.2417 10.1991C11.1545 10.1671 11.0614 10.1544 10.9688 10.162C11.5797 9.43977 11.9713 8.55806 12.0974 7.62079C12.2234 6.68353 12.0788 5.72978 11.6804 4.87197C11.282 4.01416 10.6465 3.28803 9.84881 2.77919C9.05113 2.27035 8.1245 2 7.17815 2ZM3.17537 6.96C3.17537 6.43471 3.2789 5.91457 3.48006 5.42927C3.68122 4.94396 3.97606 4.50301 4.34775 4.13157C4.71945 3.76014 5.16071 3.4655 5.64635 3.26448C6.13199 3.06346 6.65249 2.96 7.17815 2.96C7.7038 2.96 8.2243 3.06346 8.70994 3.26448C9.19558 3.4655 9.63685 3.76014 10.0085 4.13157C10.3802 4.50301 10.6751 4.94396 10.8762 5.42927C11.0774 5.91457 11.1809 6.43471 11.1809 6.96C11.1809 8.02087 10.7592 9.03828 10.0085 9.78843C9.25787 10.5386 8.23975 10.96 7.17815 10.96C6.11654 10.96 5.09842 10.5386 4.34775 9.78843C3.59709 9.03828 3.17537 8.02087 3.17537 6.96Z" fill="#AEAEAE"/>
</svg>
