<svg width="50" height="45" viewBox="0 0 50 45" fill="none" xmlns="http://www.w3.org/2000/svg">
<g clip-path="url(#clip0_268_1812)">
<path d="M41.029 18.853C42.0781 15.4008 40.1081 11.7583 36.6287 10.7173C33.1493 9.67627 29.4782 11.6309 28.429 15.0832C27.3798 18.5354 29.3498 22.1779 32.8292 23.2189C36.3086 24.2599 39.9798 22.3052 41.029 18.853Z" fill="white"/>
<path d="M19.543 18.1991C20.2284 14.6578 17.8907 11.2357 14.3215 10.5557C10.7524 9.87559 7.30335 12.1951 6.61794 15.7364C5.93253 19.2777 8.27026 22.6997 11.8394 23.3798C15.4086 24.0599 18.8576 21.7404 19.543 18.1991Z" fill="white"/>
<path d="M16.9521 11.6953C17.6257 12.7235 18.0143 13.9402 18.0143 15.2597C18.0143 18.8669 15.0695 21.7886 11.434 21.7886C9.98318 21.7886 8.64466 21.3174 7.55658 20.5291C8.73102 22.3198 10.7604 23.4937 13.0747 23.4937C16.7103 23.4937 19.655 20.5719 19.655 16.9647C19.655 14.8056 18.5928 12.8863 16.9521 11.6953Z" fill="#EFEFEF"/>
<path d="M38.6005 11.6953C39.2741 12.7235 39.6627 13.9402 39.6627 15.2597C39.6627 18.8669 36.718 21.7886 33.0824 21.7886C31.6316 21.7886 30.2931 21.3174 29.205 20.5291C30.3795 22.3198 32.4088 23.4937 34.7232 23.4937C38.3587 23.4937 41.3035 20.5719 41.3035 16.9647C41.3035 14.8056 40.2326 12.8863 38.6005 11.6953Z" fill="#EFEFEF"/>
<path d="M13.0837 23.7944C9.29265 23.7944 6.20111 20.727 6.20111 16.9655C6.20111 13.2041 9.29265 10.1367 13.0837 10.1367C16.8747 10.1367 19.9662 13.2041 19.9662 16.9655C19.9662 20.727 16.8747 23.7944 13.0837 23.7944ZM13.0837 10.7365C9.6208 10.7365 6.8056 13.5297 6.8056 16.9655C6.8056 20.4014 9.6208 23.1946 13.0837 23.1946C16.5465 23.1946 19.3617 20.4014 19.3617 16.9655C19.3617 13.5383 16.5465 10.7365 13.0837 10.7365Z" fill="#263C3C"/>
<path d="M17.8925 19.0718C17.8925 20.8198 16.4677 22.2335 14.706 22.2335C12.9443 22.2335 11.5195 20.8198 11.5195 19.0718C11.5195 17.3239 12.9443 15.9102 14.706 15.9102C16.4677 15.9016 17.8925 17.3239 17.8925 19.0718Z" fill="#263C3C"/>
<path d="M15.2251 18.499C15.2251 19.2101 14.6379 19.7928 13.9211 19.7928C13.2043 19.7928 12.6171 19.2101 12.6171 18.499C12.6171 17.7878 13.2043 17.2052 13.9211 17.2052C14.6465 17.1966 15.2251 17.7792 15.2251 18.499Z" fill="white"/>
<path d="M34.7321 23.7944C30.9411 23.7944 27.8495 20.727 27.8495 16.9655C27.8495 13.2041 30.9411 10.1367 34.7321 10.1367C38.5231 10.1367 41.6147 13.2041 41.6147 16.9655C41.6147 20.727 38.5231 23.7944 34.7321 23.7944ZM34.7321 10.7365C31.2692 10.7365 28.454 13.5297 28.454 16.9655C28.454 20.4014 31.2692 23.1946 34.7321 23.1946C38.195 23.1946 41.0102 20.4014 41.0102 16.9655C41.0102 13.5383 38.195 10.7365 34.7321 10.7365Z" fill="#263C3C"/>
<path d="M36.1582 19.0718C36.1582 20.8198 34.7333 22.2335 32.9716 22.2335C31.21 22.2335 29.7851 20.8198 29.7851 19.0718C29.7851 17.3239 31.21 15.9102 32.9716 15.9102C34.7333 15.9016 36.1582 17.3239 36.1582 19.0718Z" fill="#263C3C"/>
<path d="M33.688 18.2236C33.688 18.9347 33.1007 19.5174 32.384 19.5174C31.6672 19.5174 31.08 18.9347 31.08 18.2236C31.08 17.5124 31.6672 16.9298 32.384 16.9298C33.1007 16.9212 33.688 17.5038 33.688 18.2236Z" fill="white"/>
<path d="M42.7897 1.38657C42.2025 3.36581 39.655 2.36334 35.1126 4.72815C31.3216 6.69883 30.009 9.3978 28.7741 8.94369C27.5392 8.48957 29.3959 5.31079 34.8536 2.23482C38.9037 -0.0614521 43.4632 -0.918268 42.7897 1.38657Z" fill="#263C3C"/>
<path d="M6.45943 1.35374C7.03801 3.34156 9.58551 2.33908 14.1278 4.72103C17.9102 6.70885 19.2055 9.41638 20.4491 8.97084C21.684 8.5253 19.8446 5.33794 14.4042 2.23626C10.3454 -0.0771414 5.79449 -0.951094 6.45943 1.35374Z" fill="#263C3C"/>
<path d="M20.9146 3.62463C21.3291 3.67604 21.5968 4.11301 21.7782 4.43004C22.0459 4.89272 22.3049 5.36397 22.5036 5.85235C22.8835 6.75201 23.0735 7.74591 22.7713 8.69698C22.6245 9.16823 22.3481 9.5795 21.9595 9.87939C21.8732 9.94793 21.8904 10.0936 21.9595 10.1621C22.0459 10.2478 22.1581 10.2307 22.2445 10.1621C23.039 9.54523 23.3758 8.49135 23.3326 7.52314C23.2808 6.3493 22.7195 5.25258 22.1495 4.2501C21.8732 3.77029 21.5105 3.2819 20.9233 3.21336C20.811 3.20479 20.7246 3.31617 20.7246 3.41042C20.7074 3.54751 20.8024 3.61606 20.9146 3.62463Z" fill="#263C3C"/>
<path d="M28.3681 10.4866C27.6082 10.2638 27.0382 9.62975 26.7533 8.91859C26.4078 8.05321 26.4596 7.10214 26.7101 6.21962C26.8655 5.66269 27.09 5.13146 27.3491 4.60881C27.3923 4.51456 27.375 4.3946 27.28 4.33462C27.1937 4.28322 27.0555 4.30892 27.0037 4.40317C26.5201 5.38851 26.1142 6.45096 26.1056 7.55625C26.097 8.47305 26.3992 9.39841 27.021 10.0839C27.3577 10.4523 27.7809 10.7265 28.2558 10.8636C28.5149 10.9492 28.6185 10.5637 28.3681 10.4866Z" fill="#263C3C"/>
<path d="M1.92575 37.7083C1.89985 48.8126 16.9085 41.4868 25.0087 41.6239C33.1088 41.761 48.7651 49.8665 47.5389 37.0656C47.1244 32.7045 44.8187 30.4767 41.3126 30.6909C36.7444 30.9651 31.2694 33.9297 25.0087 34.024C17.962 34.1268 13.0052 30.2454 8.57515 30.4939C5.82904 30.6395 1.94302 32.276 1.92575 37.7083Z" fill="#263C3C"/>
<path d="M24.7665 39.5248C24.8788 39.5248 24.9997 39.5248 25.112 39.5248C34.6802 39.5248 39.2398 38.1882 41.3037 37.4513C41.2605 35.7719 40.8719 34.1011 40.1638 32.5417C39.922 32.0105 39.6456 31.4879 39.3175 30.9995C35.1724 31.7963 30.3797 33.9898 25.0083 34.0669C18.5835 34.1611 13.8944 30.9481 9.75791 30.5625C8.50575 32.4818 7.83217 34.7095 7.85808 36.9372C10.6474 37.9568 16.2432 39.4905 24.7665 39.5248Z" fill="white"/>
<path d="M25.1119 40.1253C24.9996 40.1253 24.8787 40.1253 24.7664 40.1253C18.0393 40.0996 13.1689 39.1399 10.2673 38.3431C9.33466 38.086 8.54882 37.829 7.89252 37.5977C7.89252 37.6148 7.89252 37.6319 7.89252 37.6491C8.07386 39.8597 8.95469 42.0188 10.3796 43.8353C15.1464 43.4154 20.9409 41.6076 24.9996 41.6761C28.9115 41.7446 34.5937 43.6639 39.2742 44.1951C39.9651 43.2012 40.5005 42.1131 40.8372 40.9735C41.1136 40.031 41.269 39.0628 41.2949 38.0946C39.1188 38.8486 34.4815 40.1253 25.1119 40.1253Z" fill="white"/>
<path d="M0.397252 36.2689C0.73404 34.5467 1.60623 32.9616 2.84112 31.7107C3.45425 31.0852 4.16236 30.554 4.93093 30.1256C5.75995 29.6714 6.64078 29.363 7.57342 29.1831C8.85148 28.9346 10.1641 28.926 11.4681 28.9517C11.7271 28.9603 11.7271 28.5576 11.4681 28.549C10.2764 28.5319 9.07601 28.5404 7.89293 28.7204C6.89121 28.8746 5.91539 29.1745 5.00865 29.6286C3.3938 30.4511 2.02938 31.7535 1.10537 33.3129C0.587235 34.1954 0.20727 35.1551 0.017287 36.1575C1.58465e-05 36.2604 0.0431937 36.3717 0.155456 36.406C0.241812 36.4403 0.371346 36.3717 0.397252 36.2689Z" fill="#263C3C"/>
<path d="M36.5281 30.8285C38.851 29.9631 41.3813 29.0206 43.9028 29.5004C46.0013 29.9031 47.8493 31.2654 48.8251 33.1504C49.3951 34.2643 49.6541 35.5153 49.5851 36.7662C49.5678 37.0233 49.9737 37.0233 49.9909 36.7662C50.1291 34.4785 49.1446 32.1651 47.3657 30.6999C46.5194 29.9974 45.5177 29.4833 44.4469 29.2091C43.212 28.8921 41.9253 28.9263 40.6731 29.1491C39.2137 29.4147 37.8061 29.9288 36.4244 30.4429C36.3208 30.4772 36.2517 30.58 36.2863 30.6914C36.3035 30.7856 36.4244 30.8713 36.5281 30.8285Z" fill="#263C3C"/>
<path d="M21.3035 44.0322C23.2378 43.2953 25.4399 43.3467 27.3484 44.135C27.8838 44.3577 28.3846 44.6405 28.8596 44.9661C28.9459 45.0261 29.0841 44.9832 29.1359 44.8975C29.1964 44.7947 29.1532 44.6833 29.0668 44.6234C27.3138 43.3895 25.0772 42.8926 22.9529 43.1925C22.357 43.2782 21.7611 43.4238 21.1998 43.6466C21.0962 43.6894 21.0271 43.7837 21.0617 43.8951C21.0789 43.9893 21.1998 44.075 21.3035 44.0322Z" fill="#263C3C"/>
</g>
<defs>
<clipPath id="clip0_268_1812">
<rect width="50" height="45" fill="white"/>
</clipPath>
</defs>
</svg>
