<svg width="58" height="45" viewBox="0 0 58 45" fill="none" xmlns="http://www.w3.org/2000/svg">
<g clip-path="url(#clip0_268_1749)">
<path d="M54.3716 22.6452C56.0306 17.513 53.2166 12.007 48.0863 10.3473C42.956 8.68763 37.4521 11.5027 35.7931 16.635C34.134 21.7672 36.948 27.2732 42.0783 28.9329C47.2086 30.5926 52.7125 27.7775 54.3716 22.6452Z" fill="white"/>
<path d="M22.4615 21.9009C23.7087 16.6533 20.4672 11.3878 15.2215 10.1402C9.97576 8.89259 4.71228 12.1353 3.46516 17.383C2.21803 22.6307 5.45951 27.8961 10.7052 29.1437C15.9509 30.3913 21.2144 27.1486 22.4615 21.9009Z" fill="white"/>
<path d="M18.7071 11.7539C19.7064 13.2919 20.2829 15.1119 20.2829 17.0857C20.2829 22.4816 15.914 26.8522 10.5202 26.8522C8.36775 26.8522 6.38189 26.1472 4.76758 24.9681C6.51001 27.6468 9.52084 29.4027 12.9545 29.4027C18.3483 29.4027 22.7172 25.0322 22.7172 19.6363C22.7172 16.4064 21.1413 13.5354 18.7071 11.7539Z" fill="#EFEFEF"/>
<path d="M50.8262 11.7539C51.8255 13.2919 52.4021 15.1119 52.4021 17.0857C52.4021 22.4816 48.0332 26.8522 42.6393 26.8522C40.4869 26.8522 38.501 26.1472 36.8867 24.9681C38.6292 27.6468 41.64 29.4027 45.0736 29.4027C50.4675 29.4027 54.8364 25.0322 54.8364 19.6363C54.8364 16.4064 53.2605 13.5354 50.8262 11.7539Z" fill="#EFEFEF"/>
<path d="M12.967 29.8637C7.34256 29.8637 2.75586 25.2752 2.75586 19.6486C2.75586 14.022 7.34256 9.43359 12.967 9.43359C18.5915 9.43359 23.1782 14.022 23.1782 19.6486C23.1782 25.2752 18.6043 29.8637 12.967 29.8637ZM12.967 10.318C7.82942 10.318 3.6527 14.4963 3.6527 19.6358C3.6527 24.7754 7.82942 28.9537 12.967 28.9537C18.1047 28.9537 22.2814 24.7754 22.2814 19.6358C22.2814 14.5091 18.1047 10.318 12.967 10.318Z" fill="#263C3C"/>
<path d="M16.7113 23.9389C18.3093 21.8731 17.9306 18.9026 15.8656 17.304C13.8005 15.7055 10.8311 16.0843 9.23316 18.1501C7.63522 20.2159 8.01389 23.1865 10.0789 24.785C12.144 26.3836 15.1134 26.0048 16.7113 23.9389Z" fill="#263C3C"/>
<path d="M11.7998 22.1226C12.8683 22.1226 13.7345 21.2562 13.7345 20.1873C13.7345 19.1184 12.8683 18.252 11.7998 18.252C10.7314 18.252 9.86523 19.1184 9.86523 20.1873C9.86523 21.2562 10.7314 22.1226 11.7998 22.1226Z" fill="white"/>
<path d="M45.0864 29.8637C39.4619 29.8637 34.8752 25.2752 34.8752 19.6486C34.8752 14.022 39.4619 9.43359 45.0864 9.43359C50.7109 9.43359 55.2976 14.022 55.2976 19.6486C55.2976 25.2752 50.7109 29.8637 45.0864 29.8637ZM45.0864 10.318C39.9488 10.318 35.7721 14.4963 35.7721 19.6358C35.7721 24.7754 39.9488 28.9537 45.0864 28.9537C50.224 28.9537 54.4008 24.7754 54.4008 19.6358C54.4008 14.5091 50.224 10.318 45.0864 10.318Z" fill="#263C3C"/>
<path d="M48.433 24.3871C50.2793 22.5402 50.2793 19.5457 48.433 17.6988C46.5868 15.8519 43.5934 15.8519 41.7472 17.6988C39.901 19.5457 39.901 22.5402 41.7472 24.3871C43.5934 26.2341 46.5868 26.2341 48.433 24.3871Z" fill="#263C3C"/>
<path d="M43.9209 22.1226C44.9894 22.1226 45.8556 21.2562 45.8556 20.1873C45.8556 19.1184 44.9894 18.252 43.9209 18.252C42.8525 18.252 41.9863 19.1184 41.9863 20.1873C41.9863 21.2562 42.8525 22.1226 43.9209 22.1226Z" fill="white"/>
<path d="M0.474948 6.35797C2.1277 8.25486 3.61389 4.81994 8.72589 3.74333C12.9923 2.84615 15.6572 4.98656 16.4003 3.37164C17.1434 1.75671 13.7354 -0.499053 7.4575 0.500662C2.78111 1.23122 -1.44685 4.15347 0.474948 6.35797Z" fill="#263C3C"/>
<path d="M57.4495 6.66517C55.6942 8.47235 54.4002 4.96053 49.3523 3.60194C45.1371 2.47406 42.3569 4.46067 41.7035 2.8073C41.0629 1.15392 44.5862 -0.909593 50.8 0.423361C55.4252 1.42308 59.4866 4.56321 57.4495 6.66517Z" fill="#263C3C"/>
<path d="M29.1474 45.0001C29.1346 45.0001 29.1346 45.0001 29.1217 45.0001C23.3691 45.0001 19.154 42.7059 16.6172 40.7962C13.8626 38.7199 12.4917 36.6564 12.4277 36.5666C12.2355 36.2719 12.3124 35.8745 12.6071 35.6823C12.9017 35.49 13.2989 35.5669 13.4911 35.8617C13.5167 35.8873 14.8363 37.8611 17.4244 39.8093C19.7946 41.5909 23.7535 43.7185 29.1217 43.7313C29.1217 43.7313 29.1346 43.7313 29.1474 43.7313C34.9768 43.7313 39.0511 41.5396 41.4469 39.694C44.0606 37.6817 45.2905 35.6438 45.3033 35.6182C45.4827 35.3106 45.8799 35.2209 46.1873 35.4003C46.4948 35.5797 46.5845 35.9771 46.4052 36.2719C46.3539 36.3616 45.0599 38.5148 42.2797 40.668C39.7173 42.6418 35.374 45.0001 29.1474 45.0001Z" fill="#263C3C"/>
<path d="M10.5711 37.2219C10.8145 35.9402 11.6985 34.7226 12.9541 34.3381C13.3641 34.2099 13.4282 33.6203 12.7876 33.7228C11.3654 34.274 10.2508 35.5428 9.95609 37.0552C9.91766 37.2219 10.0073 37.4013 10.1739 37.4526C10.3405 37.491 10.5454 37.4013 10.5711 37.2219Z" fill="#263C3C"/>
<path d="M46.0082 34.1712C47.2894 34.6454 48.1478 36.1193 47.9172 37.4651C47.8916 37.6317 47.9685 37.8112 48.135 37.8624C48.2888 37.9009 48.4937 37.8112 48.5322 37.6445C48.8269 35.9271 47.8147 34.1583 46.1748 33.556C46.0082 33.4919 45.8288 33.62 45.7776 33.7738C45.7392 33.9533 45.8417 34.1071 46.0082 34.1712Z" fill="#263C3C"/>
</g>
<defs>
<clipPath id="clip0_268_1749">
<rect width="58" height="45" fill="white"/>
</clipPath>
</defs>
</svg>
