<svg width="43" height="45" viewBox="0 0 43 45" fill="none" xmlns="http://www.w3.org/2000/svg">
<g clip-path="url(#clip0_268_1842)">
<path d="M41.8274 22.983C42.8261 18.7914 40.207 14.5911 35.9777 13.6014C31.7483 12.6116 27.5101 15.2072 26.5114 19.3988C25.5127 23.5903 28.1317 27.7906 32.3611 28.7804C36.5905 29.7701 40.8287 27.1745 41.8274 22.983Z" fill="white"/>
<path d="M13.8446 26.7018C16.9175 23.6563 16.9175 18.7187 13.8446 15.6732C10.7716 12.6277 5.78938 12.6277 2.71643 15.6732C-0.356532 18.7187 -0.356532 23.6563 2.71643 26.7018C5.78938 29.7473 10.7716 29.7473 13.8446 26.7018Z" fill="white"/>
<path d="M12.9072 14.8906C13.7127 16.1187 14.1774 17.572 14.1774 19.1481C14.1774 23.4567 10.656 26.9466 6.30852 26.9466C4.57365 26.9466 2.97303 26.3837 1.67188 25.4421C3.07629 27.5811 5.50305 28.9832 8.27058 28.9832C12.6181 28.9832 16.1395 25.4933 16.1395 21.1847C16.1395 18.5954 14.8693 16.3132 12.9072 14.8906Z" fill="#EFEFEF"/>
<path d="M38.7959 14.8906C39.6014 16.1187 40.0661 17.572 40.0661 19.1481C40.0661 23.4567 36.5447 26.9466 32.1972 26.9466C30.4623 26.9466 28.8617 26.3837 27.5605 25.4421C28.965 27.5811 31.3917 28.9832 34.1592 28.9832C38.5068 28.9832 42.0281 25.4933 42.0281 21.1847C42.0281 18.5954 40.758 16.3132 38.7959 14.8906Z" fill="#EFEFEF"/>
<path d="M8.28109 29.3407C3.74771 29.3407 0.0507812 25.6871 0.0507812 21.184C0.0507812 16.681 3.74771 13.0273 8.28109 13.0273C12.8145 13.0273 16.5114 16.6912 16.5114 21.184C16.5114 25.6769 12.8248 29.3407 8.28109 29.3407ZM8.28109 13.7437C4.14012 13.7437 0.773644 17.0801 0.773644 21.184C0.773644 25.288 4.14012 28.6243 8.28109 28.6243C12.4221 28.6243 15.7885 25.288 15.7885 21.184C15.7885 17.0801 12.4221 13.7437 8.28109 13.7437Z" fill="#263C3C"/>
<path d="M5.85544 21.9005C7.95993 21.9005 9.66596 20.2098 9.66596 18.1241C9.66596 16.0384 7.95993 14.3477 5.85544 14.3477C3.75095 14.3477 2.04492 16.0384 2.04492 18.1241C2.04492 20.2098 3.75095 21.9005 5.85544 21.9005Z" fill="#263C3C"/>
<path d="M6.4741 17.4399C6.4741 18.2893 5.7719 18.9853 4.91479 18.9853C4.05768 18.9853 3.35547 18.2893 3.35547 17.4399C3.35547 16.5905 4.05768 15.8945 4.91479 15.8945C5.78222 15.8945 6.4741 16.5802 6.4741 17.4399Z" fill="white"/>
<path d="M34.1698 29.3407C29.6364 29.3407 25.9395 25.6769 25.9395 21.184C25.9395 16.6912 29.6364 13.0273 34.1698 13.0273C38.7031 13.0273 42.4001 16.6912 42.4001 21.184C42.4001 25.6769 38.7135 29.3407 34.1698 29.3407ZM34.1698 13.7437C30.0288 13.7437 26.6623 17.0801 26.6623 21.184C26.6623 25.288 30.0288 28.6243 34.1698 28.6243C38.3107 28.6243 41.6772 25.288 41.6772 21.184C41.6772 17.0801 38.3107 13.7437 34.1698 13.7437Z" fill="#263C3C"/>
<path d="M32.084 21.7482C34.1885 21.7482 35.8945 20.0574 35.8945 17.9718C35.8945 15.8861 34.1885 14.1953 32.084 14.1953C29.9795 14.1953 28.2734 15.8861 28.2734 17.9718C28.2734 20.0574 29.9795 21.7482 32.084 21.7482Z" fill="#263C3C"/>
<path d="M31.1453 18.831C32.0064 18.831 32.7046 18.1391 32.7046 17.2856C32.7046 16.4321 32.0064 15.7402 31.1453 15.7402C30.2841 15.7402 29.5859 16.4321 29.5859 17.2856C29.5859 18.1391 30.2841 18.831 31.1453 18.831Z" fill="white"/>
<path d="M0.723422 7.40999C2.27241 8.46412 2.25176 5.55759 5.15354 3.59261C7.56996 1.95513 9.82117 2.96833 9.84182 1.5867C9.85215 0.205078 7.11559 -0.716005 3.4703 1.44342C0.754402 3.0502 -1.08373 6.18188 0.723422 7.40999Z" fill="#263C3C"/>
<path d="M42.2262 7.59385C40.5946 8.58657 40.6772 5.65958 37.7238 3.56156C35.2557 1.8115 32.9116 2.72235 32.9219 1.33049C32.9322 -0.0511324 35.7824 -0.859638 39.5103 1.47377C42.2778 3.21359 44.116 6.44762 42.2262 7.59385Z" fill="#263C3C"/>
<path d="M35.3374 43.2705C35.1928 43.2705 35.0482 43.2091 34.945 43.0863C34.9346 43.0658 33.3856 41.2748 30.6697 39.3201C28.1707 37.5188 24.133 35.2059 19.0833 34.4076C12.4846 33.3535 8.67406 36.7513 8.63275 36.782C8.42622 36.9764 8.09577 36.9559 7.89956 36.7513C7.70336 36.5466 7.71368 36.2191 7.93054 36.0246C8.09577 35.8711 12.1335 32.2482 19.2485 33.3842C24.5047 34.2234 28.7077 36.6285 31.2997 38.5013C34.1085 40.5277 35.6678 42.3392 35.7298 42.421C35.9157 42.636 35.8847 42.9635 35.6678 43.1374C35.5749 43.2295 35.451 43.2705 35.3374 43.2705Z" fill="#263C3C"/>
<path d="M5.93747 35.7176C5.47277 36.8741 5.89616 38.2967 6.84621 39.1052C7.12503 39.3406 7.43482 39.5248 7.78593 39.6476C7.92018 39.6885 8.06475 39.5964 8.10605 39.4736C8.14736 39.3303 8.05442 39.2075 7.9305 39.1563C6.62935 38.706 5.94779 37.0993 6.4538 35.8609C6.50543 35.7279 6.40216 35.5846 6.27824 35.5437C6.11302 35.4925 5.9891 35.5846 5.93747 35.7176Z" fill="#263C3C"/>
<path d="M34.9657 44.9994C36.3598 44.6514 37.3202 43.28 37.5474 41.9189C37.6197 41.489 37.6197 41.0694 37.5577 40.6396C37.5371 40.5168 37.3718 40.4451 37.2583 40.4758C37.124 40.5168 37.0724 40.6396 37.093 40.7726C37.2686 41.9905 36.7419 43.3824 35.7299 44.1192C35.4614 44.3137 35.1619 44.4672 34.8315 44.5491C34.532 44.6105 34.6559 45.071 34.9657 44.9994Z" fill="#263C3C"/>
</g>
<defs>
<clipPath id="clip0_268_1842">
<rect width="43" height="45" fill="white"/>
</clipPath>
</defs>
</svg>
