<svg width="46" height="45" viewBox="0 0 46 45" fill="none" xmlns="http://www.w3.org/2000/svg">
<g clip-path="url(#clip0_268_1725)">
<path d="M42.5399 24.0573C43.2228 19.8436 40.3804 15.871 36.1911 15.1841C32.0019 14.4972 28.0523 17.3561 27.3694 21.5698C26.6864 25.7834 29.5288 29.7561 33.7181 30.443C37.9073 31.1299 41.8569 28.2709 42.5399 24.0573Z" fill="white"/>
<path d="M17.1493 24.6042C18.1311 20.4508 15.5794 16.2833 11.45 15.2959C7.32064 14.3084 3.17727 16.8749 2.19555 21.0284C1.21382 25.1818 3.76549 29.3493 7.89486 30.3368C12.0242 31.3242 16.1676 28.7577 17.1493 24.6042Z" fill="white"/>
<path d="M14.1918 16.5742C14.9785 17.7915 15.4323 19.232 15.4323 20.7942C15.4323 25.065 11.9931 28.5242 7.74714 28.5242C6.05278 28.5242 4.48952 27.9662 3.21875 27.033C4.59038 29.1531 6.96047 30.5429 9.66339 30.5429C13.9094 30.5429 17.3485 27.0837 17.3485 22.8129C17.3485 20.2464 16.108 17.9843 14.1918 16.5742Z" fill="#EFEFEF"/>
<path d="M39.475 16.5742C40.2617 17.7915 40.7155 19.232 40.7155 20.7942C40.7155 25.065 37.2763 28.5242 33.0303 28.5242C31.336 28.5242 29.7727 27.9662 28.502 27.033C29.8736 29.1531 32.2437 30.5429 34.9466 30.5429C39.1926 30.5429 42.6317 27.0837 42.6317 22.8129C42.6317 20.2464 41.3912 17.9843 39.475 16.5742Z" fill="#EFEFEF"/>
<path d="M9.67291 30.8985C5.24538 30.8985 1.63477 27.2668 1.63477 22.8135C1.63477 18.3602 5.24538 14.7285 9.67291 14.7285C14.1005 14.7285 17.7111 18.3602 17.7111 22.8135C17.7111 27.2668 14.1105 30.8985 9.67291 30.8985ZM9.67291 15.4386C5.62863 15.4386 2.34075 18.7456 2.34075 22.8135C2.34075 26.8814 5.62863 30.1884 9.67291 30.1884C13.7172 30.1884 17.0051 26.8814 17.0051 22.8135C17.0051 18.7456 13.7172 15.4386 9.67291 15.4386Z" fill="#263C3C"/>
<path d="M13.404 26.2823C13.404 28.3517 11.7399 30.0255 9.68249 30.0255C7.62505 30.0255 5.96094 28.3517 5.96094 26.2823C5.96094 24.2129 7.62505 22.5391 9.68249 22.5391C11.7399 22.5391 13.404 24.223 13.404 26.2823Z" fill="#263C3C"/>
<path d="M10.2978 25.6021C10.2978 26.4441 9.61196 27.1339 8.77486 27.1339C7.93777 27.1339 7.25195 26.4441 7.25195 25.6021C7.25195 24.7601 7.93777 24.0703 8.77486 24.0703C9.61196 24.0703 10.2978 24.7601 10.2978 25.6021Z" fill="white"/>
<path d="M34.9581 30.8985C30.5305 30.8985 26.9199 27.2668 26.9199 22.8135C26.9199 18.3602 30.5305 14.7285 34.9581 14.7285C39.3856 14.7285 42.9962 18.3602 42.9962 22.8135C42.9962 27.2668 39.3856 30.8985 34.9581 30.8985ZM34.9581 15.4386C30.9138 15.4386 27.6259 18.7456 27.6259 22.8135C27.6259 26.8814 30.9138 30.1884 34.9581 30.1884C39.0024 30.1884 42.2902 26.8814 42.2902 22.8135C42.2902 18.7456 39.0024 15.4386 34.9581 15.4386Z" fill="#263C3C"/>
<path d="M38.5889 27.0799C39.0252 25.0597 37.7508 23.0662 35.7423 22.6273C33.7338 22.1885 31.7518 23.4703 31.3155 25.4905C30.8791 27.5107 32.1536 29.5042 34.1621 29.9431C36.1706 30.382 38.1525 29.1001 38.5889 27.0799Z" fill="#263C3C"/>
<path d="M35.5614 25.6021C35.5614 26.4441 34.8756 27.1339 34.0385 27.1339C33.2014 27.1339 32.5156 26.4441 32.5156 25.6021C32.5156 24.7601 33.2014 24.0703 34.0385 24.0703C34.8756 24.0703 35.5614 24.7601 35.5614 25.6021Z" fill="white"/>
<path d="M0.615935 7.25323C2.22962 8.40968 2.72381 5.48813 6.44536 3.70274C9.54161 2.21153 11.9823 3.35783 12.2445 1.97821C12.5067 0.59859 9.49118 -0.496992 4.87202 1.44056C1.43286 2.88105 -1.25997 5.91419 0.615935 7.25323Z" fill="#263C3C"/>
<path d="M45.3557 7.2013C43.6412 8.4389 43.0562 5.3449 39.0422 3.4885C35.6938 1.93642 33.0917 3.17403 32.7892 1.71325C32.4866 0.252475 35.7039 -0.944549 40.6962 1.07416C44.4178 2.56537 47.3527 5.76082 45.3557 7.2013Z" fill="#263C3C"/>
<path d="M34.0388 43.0112C33.8674 43.0112 33.706 42.9199 33.6052 42.7678C33.5951 42.7576 32.8084 41.4896 31.0939 40.181C29.5205 38.9738 26.8075 37.4927 22.854 37.2594C15.2596 36.8029 10.7212 42.7576 10.6808 42.8185C10.5094 43.0417 10.1967 43.0924 9.97482 42.9199C9.75294 42.7475 9.70251 42.433 9.87397 42.2098C9.9244 42.1388 11.1145 40.5665 13.3131 39.0347C15.3504 37.6246 18.6685 35.9914 22.9145 36.245C27.1504 36.4986 30.0551 38.1014 31.7494 39.41C33.5951 40.8302 34.4322 42.1895 34.4624 42.2504C34.6036 42.4939 34.533 42.7982 34.291 42.9504C34.2204 42.9808 34.1296 43.0112 34.0388 43.0112Z" fill="#263C3C"/>
<path d="M8.53355 40.4641C7.73679 41.7524 7.59559 43.4161 8.17047 44.816C8.2209 44.9377 8.34192 45.029 8.48312 44.9884C8.60415 44.958 8.71509 44.8058 8.65457 44.6739C8.13013 43.3856 8.24107 41.8944 8.96722 40.7177C9.13868 40.4438 8.705 40.18 8.53355 40.4641Z" fill="#263C3C"/>
<path d="M34.8558 40.8606C35.814 41.7939 36.177 43.2648 35.7837 44.543C35.6829 44.8575 36.177 44.9893 36.2678 44.6749C36.7217 43.2242 36.2981 41.5606 35.2088 40.4954C34.987 40.2722 34.6239 40.6374 34.8558 40.8606Z" fill="#263C3C"/>
</g>
<defs>
<clipPath id="clip0_268_1725">
<rect width="46" height="45" fill="white"/>
</clipPath>
</defs>
</svg>
