<svg width="45" height="45" viewBox="0 0 45 45" fill="none" xmlns="http://www.w3.org/2000/svg">
<g clip-path="url(#clip0_268_1772)">
<path d="M2.0362 6.05969C3.35973 7.39044 3.91969 4.5242 7.16742 3.1525C9.87557 2.006 11.8914 3.41865 12.1867 2.06742C12.4819 0.716193 9.95702 -0.706692 5.93552 0.716193C2.94231 1.7808 0.498871 4.51396 2.0362 6.05969Z" fill="#263C3C"/>
<path d="M42.9634 6.18162C41.5992 7.46119 41.1308 4.58472 37.934 3.10041C35.2666 1.86179 33.1998 3.20278 32.9555 1.84131C32.7112 0.479848 35.2768 -0.861144 39.2474 0.705053C42.21 1.87202 44.5517 4.68708 42.9634 6.18162Z" fill="#263C3C"/>
<path d="M41.741 25.9736C45.4943 22.1998 45.4943 16.0814 41.741 12.3077C37.9878 8.53395 31.9026 8.53395 28.1494 12.3077C24.3961 16.0814 24.3961 22.1998 28.1494 25.9736C31.9026 29.7473 37.9878 29.7473 41.741 25.9736Z" fill="white"/>
<path d="M19.386 21.603C20.6594 16.4219 17.5144 11.1839 12.3614 9.90357C7.20849 8.62324 1.99894 11.7854 0.725567 16.9665C-0.547806 22.1476 2.5972 27.3856 7.75014 28.6659C12.9031 29.9462 18.1126 26.784 19.386 21.603Z" fill="white"/>
<path d="M15.7103 11.4844C16.6979 12.9994 17.268 14.8113 17.268 16.7562C17.268 22.0997 12.9614 26.4195 7.65714 26.4195C5.5395 26.4195 3.57456 25.7235 1.98633 24.5565C3.70692 27.1975 6.66959 28.948 10.0395 28.948C15.354 28.948 19.6504 24.6179 19.6504 19.2846C19.6605 16.0806 18.1028 13.2348 15.7103 11.4844Z" fill="#EFEFEF"/>
<path d="M40.6029 11.332C41.5904 12.847 42.1606 14.6589 42.1606 16.6039C42.1606 21.9474 37.854 26.2672 32.5497 26.2672C30.4321 26.2672 28.4671 25.5711 26.8789 24.4041C28.5893 27.0452 31.5622 28.7956 34.9321 28.7956C40.2466 28.7956 44.5429 24.4656 44.5429 19.1323C44.5429 15.9283 42.9852 13.0927 40.6029 11.332Z" fill="#EFEFEF"/>
<path d="M10.0588 29.3994C4.51018 29.3994 0 24.8645 0 19.2856C0 13.7169 4.51018 9.17188 10.0588 9.17188C15.6075 9.17188 20.1176 13.7067 20.1176 19.2856C20.1075 24.8645 15.5973 29.3994 10.0588 29.3994ZM10.0588 10.0625C4.99887 10.0625 0.885747 14.198 0.885747 19.2856C0.885747 24.3732 4.99887 28.5088 10.0588 28.5088C15.1188 28.5088 19.2319 24.3732 19.2319 19.2856C19.2319 14.198 15.1188 10.0625 10.0588 10.0625Z" fill="#263C3C"/>
<path d="M34.9416 29.2451C29.393 29.2451 24.8828 24.7103 24.8828 19.1313C24.8828 13.5524 29.393 9.01758 34.9416 9.01758C40.4903 9.01758 45.0005 13.5524 45.0005 19.1313C45.0005 24.7103 40.4903 29.2451 34.9416 29.2451ZM34.9416 9.9184C29.8817 9.9184 25.7686 14.054 25.7686 19.1416C25.7686 24.2291 29.8817 28.3647 34.9416 28.3647C40.0016 28.3647 44.1147 24.2291 44.1147 19.1416C44.1147 14.054 40.0016 9.9184 34.9416 9.9184Z" fill="#263C3C"/>
<path d="M15.5666 16.6542C13.6729 13.0919 10.0586 16.4904 10.0586 16.4904C10.0586 16.4904 6.4342 13.1021 4.55072 16.6542C2.88104 19.7866 10.0586 24.6797 10.0586 24.6797C10.0586 24.6797 17.2261 19.7866 15.5666 16.6542Z" fill="#FF553C"/>
<path d="M40.4494 16.8691C38.5557 13.3067 34.9415 16.7053 34.9415 16.7053C34.9415 16.7053 31.317 13.317 29.4335 16.8691C27.7638 20.0014 34.9415 24.8945 34.9415 24.8945C34.9415 24.8945 42.1191 20.0014 40.4494 16.8691Z" fill="#FF553C"/>
<path d="M22.3365 44.9995C19.211 44.9995 16.6352 43.5766 14.884 40.8946C13.591 38.9087 13.2042 36.9331 13.194 36.8512C13.1125 36.4315 13.3874 36.0323 13.8048 35.9504C14.2223 35.8685 14.6193 36.1449 14.7008 36.5646C14.7008 36.585 15.0571 38.356 16.1974 40.0859C17.6736 42.3278 19.7404 43.464 22.3467 43.464C24.9327 43.464 26.9994 42.2356 28.4757 39.7993C29.6261 37.9158 29.9824 35.9811 29.9926 35.9606C30.0639 35.5409 30.461 35.2645 30.8784 35.3464C31.2958 35.4181 31.5707 35.8173 31.4994 36.237C31.4791 36.3291 31.1024 38.4379 29.8094 40.5671C28.0481 43.464 25.4621 44.9995 22.3365 44.9995Z" fill="#263C3C"/>
<path d="M10.4965 38.7148C10.3947 37.7628 10.4558 36.7596 10.8834 35.8895C11.2702 35.1115 11.9422 34.5075 12.7974 34.2926C13.2454 34.18 13.7035 34.2107 14.1413 34.3847C14.2736 34.4359 14.4263 34.3233 14.4671 34.2004C14.5078 34.0469 14.4162 33.9343 14.2838 33.8729C13.3879 33.5146 12.3494 33.7398 11.5757 34.2823C10.7205 34.8863 10.2114 35.8485 10.0282 36.8824C9.92635 37.4864 9.91617 38.1006 9.97725 38.7045C9.98743 38.8478 10.0892 38.9707 10.242 38.9707C10.3641 38.9809 10.5168 38.8581 10.4965 38.7148Z" fill="#263C3C"/>
<path d="M28.7419 34.7324C28.7826 34.6403 28.8845 34.5686 28.9965 34.5277C29.139 34.4663 29.2917 34.4458 29.4444 34.4355C29.872 34.4048 30.3098 34.3946 30.7272 34.4355C31.4908 34.497 32.2747 34.7631 32.7227 35.4285C32.9365 35.7458 33.0689 36.1348 32.9976 36.5136C32.967 36.6569 33.0383 36.8002 33.1808 36.8411C33.303 36.8719 33.4761 36.8002 33.5066 36.6569C33.6797 35.7254 33.1299 34.845 32.346 34.3741C31.4908 33.8623 30.3811 33.8316 29.4139 33.9135C28.9354 33.9544 28.4365 34.108 28.2431 34.5993C28.1922 34.7324 28.3041 34.886 28.4263 34.9269C28.5689 34.9576 28.691 34.8655 28.7419 34.7324Z" fill="#263C3C"/>
</g>
<defs>
<clipPath id="clip0_268_1772">
<rect width="45" height="45" fill="white"/>
</clipPath>
</defs>
</svg>
